<?xml version="1.0" encoding="utf-8"?>
<!-- Generator: Adobe Illustrator 24.1.1, SVG Export Plug-In . SVG Version: 6.00 Build 0)  -->
<svg version="1.1" id="Layer_1" xmlns="http://www.w3.org/2000/svg" xmlns:xlink="http://www.w3.org/1999/xlink" x="0px" y="0px"
	 viewBox="0 0 49.8 49.8" style="enable-background:new 0 0 49.8 49.8;" xml:space="preserve">
<path d="M0,24.9C0,11.1,11.1,0,24.9,0s24.9,11.1,24.9,24.9S38.7,49.8,24.9,49.8C11.2,49.8,0,38.7,0,24.9C0,24.9,0,24.9,0,24.9z
	 M14.4,27.8l7.3-7.6v18.3c0,1.3,1.1,2.4,2.4,2.4c0,0,0,0,0,0h1.6c1.3,0,2.4-1.1,2.4-2.4c0,0,0,0,0,0V20.2l7.3,7.6
	c0.9,1,2.4,1,3.4,0.1c0,0,0,0,0,0l1.1-1.1c0.9-0.9,0.9-2.5,0-3.4c0,0,0,0,0,0L26.6,10c-0.9-0.9-2.5-0.9-3.4,0c0,0,0,0,0,0L9.9,23.3
	c-0.9,0.9-0.9,2.5,0,3.4c0,0,0,0,0,0l1.1,1.1C11.9,28.8,13.4,28.8,14.4,27.8C14.4,27.8,14.4,27.8,14.4,27.8L14.4,27.8z"/>
</svg>
